<svg id="图层_1" data-name="图层 1" xmlns="http://www.w3.org/2000/svg" width="271.57mm" height="271.57mm" viewBox="0 0 769.81 769.81">
  <defs>
    <style>
      .cls-1 {
        fill: #fefefe;
      }

      .cls-2 {
        fill: #56007e;
      }

      .cls-3 {
        fill: #57007f;
      }
    </style>
  </defs>
  <title>Zhngjah</title>
  <g>
    <path class="cls-1" d="M613.08,280.32q0,190.55.07,381.08c0,2.81-.64,3.45-3.45,3.45q-381.47-.12-762.92,0c-2.81,0-3.45-.64-3.45-3.45q.12-381.46,0-762.91c0-2.82.64-3.45,3.45-3.45q381.47.1,762.92,0c2.81,0,3.45.63,3.45,3.45Q613,89.4,613.08,280.32Z" transform="translate(156.67 104.96)"/>
    <path class="cls-2" d="M228.35,663.85c-66.95,0-133.91.13-200.86-.09A173.72,173.72,0,0,1-20,656.49a186.54,186.54,0,0,1-56.08-27c-12.83-9-23.94-19.78-34.33-31.44a173.86,173.86,0,0,1-24.79-36.59,185.77,185.77,0,0,1-16-44.66c-4.16-18.83-4.52-37.9-4.51-57.06.08-126.15-.12-252.29.18-378.43a177.66,177.66,0,0,1,15-70.36,184.5,184.5,0,0,1,27.48-45.44,191.24,191.24,0,0,1,34.7-32.72A188.22,188.22,0,0,1-23.7-94.64a185,185,0,0,1,34.77-7.15c11.92-1.32,23.84-1.44,35.8-1.44q191.08,0,382.19.13c16.46,0,32.67,3.1,48.53,7.83a194.67,194.67,0,0,1,29.76,11.62,174,174,0,0,1,32,20.33,192.53,192.53,0,0,1,41,44.15,187.2,187.2,0,0,1,27.89,68.81A184.79,184.79,0,0,1,610.79,71c1.21,16.61.54,33.22.55,49.82q.17,180,0,360c0,22.59-4.94,44.42-13.36,65.45a184.36,184.36,0,0,1-25,43.86c-3.39,4.42-6.6,9.11-11,12.66-1.66,1.34-1.66,3.39-3.19,4.78-17.06,15.51-35.13,29.53-56.28,39.15a189.08,189.08,0,0,1-47.76,14.67,162.22,162.22,0,0,1-26.26,2.43Q328.4,663.83,228.35,663.85Z" transform="translate(156.67 104.96)"/>
    <path class="cls-1" d="M302,258V151.36c0-5.16,0-5.17-5.31-5.17-18.27,0-36.54-.06-54.81.06-2.94,0-3.92-.74-3.87-3.78q.27-16,0-31.91c-.05-3.08.8-4.06,4-4q48.44.17,96.86,0c2.89,0,3.5.85,3.49,3.58-.1,28.41-.06,56.81-.06,85.22,0,5.45.4,5.88,5.66,5.88h86.72c4.66,0,5.41-.75,5.41-5.42V112.42c0-4.81.14-5,5.14-5q14.26,0,28.53,0c4.46,0,5.11.69,5.11,5.33q0,42.42,0,84.85c0,5.92,0,5.92,6.08,5.92,18.9,0,37.8.09,56.69-.07a10.36,10.36,0,0,1,8.21,3.48c7.94,8.16,15.94,16.28,24.18,24.13a12.06,12.06,0,0,1,3.89,9.56q-.09,45.81,0,91.6v73.21c0,4.83-.24,5.07-5.09,5.08h-30c-5.41,0-5.75-.32-5.75-5.71V250.5c0-9.16.84-8.18-8.29-8.19H483.69c-4.73,0-4.82.1-4.82,4.89V404.13c0,6.29-.1,6.38-6.21,6.38-32.54,0-65.07,0-97.61.06a10.05,10.05,0,0,1-7.89-3.34c-7.86-8.06-16-15.88-23.8-24-2-2.1-3.15-1.82-5,.07-8.06,8.22-16.29,16.27-24.35,24.48a8.91,8.91,0,0,1-7,2.76c-17.64-.1-35.29-.05-52.93-.05-4.89,0-5.09,0-4.84,4.76.19,3.45-1,5.86-3.46,8.22-8.16,7.94-16.18,16-24.17,24.14a8.56,8.56,0,0,1-6.63,2.72q-47.86-.11-95.73,0c-3.53,0-4.46-1-4.38-4.44.21-10.26-.07-20.53.16-30.78.07-3,.77-5.56-3.76-4.77-1.31.23-2.2-1-2.3-2.47-.08-1.12,0-2.25,0-3.38V248c0-5.69,0-5.69-5.86-5.69H56.52c-4.82,0-4.83,0-4.83,4.84V405.58c0,4.76-.15,4.93-4.77,4.93H-112.26c-4.53,0-4.82-.32-4.82-5,0-14.64,0-29.28-.06-43.92a12.11,12.11,0,0,1,2-6.69c4.1-6.49,7.94-13.14,11.94-19.67,3.63-5.92,7.06-12,10.93-17.8,3.13-4.69,5.62-9.83,8.65-14.63,5-7.86,9.66-15.9,14.29-24q8.22-14.3,16.91-28.29c3.4-5.51,6.58-11.19,9.86-16.8,5.13-8.76,10.18-17.59,15.84-26,2.26-3.38,4.05-7.07,6.12-10.58C-17,191-13.35,184.88-9.71,178.75-4.6,170.17.48,161.58,5.61,153c.88-1.48,2-2.83,2.88-4.33,1.13-2,1-3.38-1.78-3.34-.87,0-1.75,0-2.63,0H-111.17c-5.82,0-5.91-.11-5.91-5.85,0-10.26.07-20.52-.06-30.78,0-2.72.71-3.7,3.58-3.69q80.52.11,161.05,0c3.77,0,4.24,1.83,4.24,4.91-.07,29.66.05,59.32-.15,89,0,4,1.22,4.74,4.86,4.7,18.14-.16,36.29.1,54.44-.17a18,18,0,0,1,14.27,5.87c6.09,6.38,5,6.48,10.89,0,4-4.35,8.16-5.94,14.05-5.89,31.28.29,62.57.13,93.86.13,5.22,0,5.23,0,5.23,5.17V364.87c0,5.26,0,5.27,5.14,5.27h42.8c4.82,0,4.88-.06,4.88-4.79Q302,311.66,302,258Z" transform="translate(156.67 104.96)"/>
    <path class="cls-3" d="M11.42,298.72c0,22.38-.07,44.77.07,67.15,0,3.45-1,4.38-4.41,4.36-25.89-.15-51.77-.08-77.66-.08-4.55,0-4.77-.19-2.43-4.27,4.16-7.28,8.58-14.42,12.88-21.63,7.24-12.13,14.4-24.32,21.73-36.39,7.13-11.75,14.15-23.56,21.21-35.34C-10,260.5-3,248.35,4.15,236.3c1.64-2.77,3.24-5.58,4.9-8.34.37-.6.82-1.41,1.71-1.05.66.26.57,1,.59,1.66,0,1.25.06,2.5.06,3.75Q11.43,265.52,11.42,298.72Z" transform="translate(156.67 104.96)"/>
    <path class="cls-3" d="M208.94,287c0,13-.09,26,.07,39,0,3-.95,3.8-3.87,3.78q-25.3-.18-50.62,0c-2.92,0-3.91-.74-3.89-3.77q.15-39,0-78c0-3.27,1.17-4.33,4.41-4.31,16.62.12,33.25.16,49.87,0,3.5,0,4.12,1.23,4.08,4.33C208.86,261,208.94,274,208.94,287Z" transform="translate(156.67 104.96)"/>
    <path class="cls-3" d="M438.7,342.16c0,9.51-.08,19,.05,28.52.05,3.12-1.12,4.15-4.19,4.13q-26.08-.13-52.16,0c-3,0-4.26-.9-4.24-4.07q.15-28.15,0-56.3c0-3.33,1.44-4.71,4.74-4.7q25.89.09,51.79,0c3.23,0,4.06,1.33,4,4.29C438.63,323.39,438.7,332.78,438.7,342.16Z" transform="translate(156.67 104.96)"/>
    <path class="cls-3" d="M390.84,241.4c14.63,0,29.25.07,43.88-.06,3,0,4.11.79,4,4-.21,8.75-.16,17.5,0,26.25,0,3.14-1.14,4.13-4.19,4.11-20.5-.09-41,0-61.5-.09a7.44,7.44,0,0,0-5.88,2.43c-7,7.16-14.09,14.19-21.2,21.23-.7.68-1.21,2.15-2.62,1.45-1.17-.58-1.16-1.78-1.16-2.94,0-17.75.07-35.5-.05-53.25,0-3,1.46-3.14,3.71-3.13C360.84,241.42,375.84,241.4,390.84,241.4Z" transform="translate(156.67 104.96)"/>
    <path class="cls-3" d="M177.93,411.59h-27c-2,0-4,.14-2-2.88.54-.78.21-2.19.21-3.31,0-10.75.12-21.5-.05-32.25-.06-3.51.94-4.88,4.67-4.85,16.87.17,33.75.14,50.63,0,3.38,0,4.67,1,4.62,4.49q-.24,17.44,0,34.88c.06,3.24-1.09,4-4.09,3.95C195.94,411.48,186.93,411.59,177.93,411.59Z" transform="translate(156.67 104.96)"/>
  </g>
</svg>
